<svg width="72" height="72" viewBox="0 0 72 72" fill="none" xmlns="http://www.w3.org/2000/svg">
<path d="M31.2962 50.7747C31.4394 50.9179 31.4394 51.1328 31.2962 51.276L21.2702 67.4608C21.0554 67.8905 20.4108 67.8189 20.2676 67.3892L17.2598 60.8007C17.1882 60.5859 16.9733 60.4426 16.6869 60.4426L9.45384 60.7291C8.95254 60.7291 8.66609 60.2278 8.95254 59.7981L17.2598 46.4778C17.403 46.263 17.6895 46.1914 17.9043 46.3346C18.8353 47.0507 20.0528 47.3372 21.4134 47.194L25.1374 46.6927C26.8561 46.4778 28.5749 47.194 29.6491 48.5547L31.2962 50.7747ZM62.162 60.6575L54.929 60.371C54.7141 60.371 54.4993 60.5143 54.356 60.7291L51.3482 67.3176C51.1334 67.7473 50.5605 67.8189 50.3456 67.3892L40.3196 51.2044C40.248 51.0612 40.248 50.8463 40.3196 50.7031L42.0384 48.483C43.1126 47.1224 44.8313 46.4062 46.5501 46.6211L50.274 47.1224C51.5631 47.2656 52.7805 46.9075 53.7831 46.263C53.998 46.1198 54.2844 46.1914 54.4277 46.4062L62.7349 59.7265C62.9498 60.1562 62.5917 60.6575 62.162 60.6575Z" fill="#2B79C3"/>
<path d="M35.8064 40.5338C43.2025 40.5338 49.1983 34.538 49.1983 27.1419C49.1983 19.7458 43.2025 13.75 35.8064 13.75C28.4102 13.75 22.4145 19.7458 22.4145 27.1419C22.4145 34.538 28.4102 40.5338 35.8064 40.5338Z" fill="#2B79C3"/>
<path d="M57.3635 23.7045L54.7138 21.6993C53.4963 20.7683 52.8518 19.1928 53.0667 17.6889L53.4963 14.3947C53.8544 11.5301 51.4195 9.16681 48.6266 9.52488L45.3323 9.95457C43.8284 10.1694 42.2529 9.52488 41.3219 8.30744L39.3167 5.65771C37.598 3.36605 34.1605 3.36605 32.3701 5.65771L30.3649 8.30744C29.4339 9.52488 27.8584 10.1694 26.3545 9.95457L23.0602 9.52488C20.1957 9.16681 17.8324 11.6017 18.1905 14.3947L18.6202 17.6889C18.835 19.1928 18.1905 20.7683 16.973 21.6993L14.3233 23.7045C12.0316 25.4233 12.0316 28.8608 14.3233 30.6511L16.973 32.6563C18.1905 33.5873 18.835 35.1628 18.6202 36.6667L18.1905 39.961C17.8324 42.8256 20.2673 45.1888 23.0602 44.8308L26.3545 44.4011C27.8584 44.1862 29.4339 44.8308 30.3649 46.0482L32.3701 48.6979C34.0889 50.9896 37.5263 50.9896 39.3167 48.6979L41.3219 46.0482C42.2529 44.8308 43.8284 44.1862 45.3323 44.4011L48.6266 44.8308C51.4911 45.1888 53.8544 42.7539 53.4963 39.961L53.0667 36.6667C52.8518 35.1628 53.4963 33.5873 54.7138 32.6563L57.3635 30.6511C59.5836 28.8608 59.5836 25.4233 57.3635 23.7045ZM35.8076 43.0404C27.0707 43.0404 19.9092 35.9506 19.9092 27.142C19.9092 18.4051 26.999 11.2436 35.8076 11.2436C44.5446 11.2436 51.706 18.3334 51.706 27.142C51.706 35.9506 44.5446 43.0404 35.8076 43.0404Z" fill="#3C4652"/>
</svg>
