<svg width="73" height="72" viewBox="0 0 73 72" fill="none" xmlns="http://www.w3.org/2000/svg">
<path d="M54.1997 52.7932C53.8101 52.1114 52.8854 51.8681 52.2038 52.2577C39.6926 59.4626 23.6759 55.2275 16.4711 42.8621C9.31468 30.4968 13.6473 14.5774 26.1586 7.37269C26.8401 6.98311 27.0836 6.05821 26.694 5.3768C26.3046 4.69503 25.3796 4.45172 24.6982 4.84112C10.7751 12.8736 5.95543 30.594 13.9394 44.3225C18.9049 52.8906 27.6191 57.9048 36.8688 58.5863V62.5784H31.2704C30.9824 62.5772 30.697 62.633 30.4307 62.7427C30.1643 62.8523 29.9224 63.0136 29.7187 63.2173C29.515 63.4209 29.3537 63.6629 29.244 63.9292C29.1344 64.1955 29.0785 64.4809 29.0797 64.7689C29.0785 65.0569 29.1343 65.3424 29.2439 65.6087C29.3536 65.875 29.5149 66.117 29.7186 66.3207C29.9223 66.5244 30.1642 66.6857 30.4306 66.7953C30.6969 66.905 30.9824 66.9608 31.2704 66.9596H45.3883C45.6763 66.9608 45.9617 66.905 46.228 66.7953C46.4944 66.6856 46.7363 66.5243 46.94 66.3206C47.1437 66.117 47.305 65.875 47.4146 65.6087C47.5243 65.3423 47.5801 65.0569 47.5789 64.7689C47.5801 64.4809 47.5243 64.1955 47.4146 63.9292C47.3049 63.6629 47.1436 63.4209 46.9399 63.2173C46.7363 63.0136 46.4943 62.8523 46.228 62.7427C45.9617 62.633 45.6763 62.5772 45.3883 62.5784H39.4004H39.7898V58.6838C44.5119 58.5863 49.2828 57.3205 53.6644 54.7891C54.3458 54.3508 54.5893 53.475 54.1997 52.7932Z" fill="#0E538C"/>
<path d="M39.3025 53.3284C26.4017 53.3284 15.9349 42.8616 15.9349 29.9607C15.9349 17.0599 26.4017 6.59326 39.3026 6.59326C52.2034 6.59326 62.6702 17.0597 62.6702 29.9608C62.67 42.8616 52.2034 53.3284 39.3025 53.3284Z" fill="#2A94F4"/>
<path d="M21.8747 14.3825C20.268 20.6141 18.8076 29.6201 23.4325 28.5976C27.8625 27.624 33.3638 26.553 35.9924 26.1636C38.6213 25.7742 41.7854 28.403 45.3393 30.3017C45.8261 32.2976 45.8746 33.3684 43.0999 35.4133C40.2764 37.5064 38.9619 33.4174 37.8422 34.6344C35.9924 36.8737 37.258 38.967 34.8725 43.8352C32.4872 48.6061 32.2437 47.8758 30.5398 51.6245C33.2175 52.6955 36.1872 53.3286 39.3026 53.3286C48.3575 53.3286 56.1953 48.168 60.0899 40.6711C59.457 39.3566 58.5808 37.9936 57.3637 36.4845C53.6151 31.9569 49.6718 30.1071 43.4893 26.3097C37.3067 22.5612 38.2316 20.8575 39.7407 19.1535C41.2498 17.4494 43.5864 10.1471 39.1563 7.85918L37.1604 6.64209C31.1244 7.22628 25.7206 10.0984 21.8747 14.3825Z" fill="#FFBE55"/>
</svg>
