<svg width="60" height="59" viewBox="0 0 60 59" fill="none" xmlns="http://www.w3.org/2000/svg">
<path d="M55.8003 1.83301H4.32744C3.09146 1.83301 2.08949 2.83497 2.08949 4.07096V55.5438C2.08949 56.7798 3.09146 57.7817 4.32744 57.7817H55.8003C57.0362 57.7817 58.0382 56.7798 58.0382 55.5438V4.07096C58.0382 2.83497 57.0362 1.83301 55.8003 1.83301Z" fill="#CCD3EB"/>
<path d="M54.6813 1.83301V32.0453C54.6636 37.9753 52.3001 43.6573 48.1069 47.8504C43.9138 52.0436 38.2318 54.4071 32.3018 54.4248H8.80334C7.02272 54.4248 5.31502 53.7174 4.05593 52.4584C2.79684 51.1993 2.08949 49.4916 2.08949 47.7109V4.07096C2.08949 3.47742 2.32528 2.90818 2.74497 2.48849C3.16467 2.06879 3.7339 1.83301 4.32744 1.83301H54.6813Z" fill="#F5F7FF"/>
<path d="M13.2796 49.9488C13.279 50.1554 13.2211 50.3578 13.1125 50.5336C13.0039 50.7094 12.8487 50.8517 12.6641 50.9446L8.18825 53.1826C8.03235 53.2625 7.85988 53.3046 7.68471 53.3057C7.47521 53.3063 7.26973 53.2482 7.09166 53.1378C6.9304 53.037 6.79748 52.8968 6.70546 52.7304C6.61345 52.564 6.56536 52.3769 6.56574 52.1867V47.7108C6.56631 47.5201 6.61564 47.3326 6.70904 47.1663C6.80243 47 6.93679 46.8603 7.09936 46.7605C7.26192 46.6607 7.4473 46.6042 7.63787 46.5962C7.82845 46.5882 8.01791 46.6291 8.18825 46.7149L12.6641 48.9529C12.8487 49.0459 13.0039 49.1881 13.1125 49.3639C13.2211 49.5397 13.279 49.7421 13.2796 49.9488Z" fill="#647499"/>
<path d="M37.8969 48.8296V51.0675H17.7554C17.4586 51.0675 17.174 50.9496 16.9642 50.7398C16.7543 50.53 16.6364 50.2453 16.6364 49.9486C16.6364 49.6518 16.7543 49.3672 16.9642 49.1573C17.174 48.9475 17.4586 48.8296 17.7554 48.8296H37.8969ZM53.5626 49.9486C53.5626 50.2453 53.4447 50.53 53.2348 50.7398C53.025 50.9496 52.7404 51.0675 52.4436 51.0675H40.1349V48.8296H52.4436C52.7404 48.8296 53.025 48.9475 53.2348 49.1573C53.4447 49.3672 53.5626 49.6518 53.5626 49.9486Z" fill="#96A1C3"/>
<path d="M40.1357 48.8299V51.0679C40.1357 51.3646 40.0178 51.6492 39.8079 51.8591C39.5981 52.0689 39.3135 52.1868 39.0167 52.1868C38.7199 52.1868 38.4353 52.0689 38.2255 51.8591C38.0156 51.6492 37.8977 51.3646 37.8977 51.0679V48.8299C37.8977 48.5331 38.0156 48.2485 38.2255 48.0387C38.4353 47.8288 38.7199 47.7109 39.0167 47.7109C39.3135 47.7109 39.5981 47.8288 39.8079 48.0387C40.0178 48.2485 40.1357 48.5331 40.1357 48.8299Z" fill="#647499"/>
<path d="M40.136 27.1216V35.402L30.0652 38.7589L19.9945 35.402V27.1216L30.0652 29.8071L40.136 27.1216Z" fill="#96A1C3"/>
<path d="M40.136 27.1216V35.402L30.0652 38.7589L19.9945 35.402V27.1216L30.0652 29.8071L37.8981 27.7146L40.136 27.1216Z" fill="#CCD3EB"/>
<path d="M40.136 27.1216V30.9261L30.0652 34.283L19.9945 30.9261V27.1216L30.0652 29.8071L37.8981 27.7146L40.136 27.1216Z" fill="#96A1C3"/>
<path d="M4.32744 1.83301H55.8003C56.3938 1.83301 56.963 2.06879 57.3827 2.48849C57.8024 2.90818 58.0382 3.47742 58.0382 4.07096V10.7848H2.08949V4.07096C2.08949 3.47742 2.32528 2.90818 2.74497 2.48849C3.16467 2.06879 3.7339 1.83301 4.32744 1.83301Z" fill="#0074FF"/>
<path d="M44.6111 37.6399C44.3144 37.6399 44.0298 37.522 43.8199 37.3122C43.6101 37.1023 43.4922 36.8177 43.4922 36.521V24.2122C43.4922 23.9155 43.6101 23.6308 43.8199 23.421C44.0298 23.2112 44.3144 23.0933 44.6111 23.0933C44.9079 23.0933 45.1925 23.2112 45.4024 23.421C45.6122 23.6308 45.7301 23.9155 45.7301 24.2122V36.521C45.7301 36.8177 45.6122 37.1023 45.4024 37.3122C45.1925 37.522 44.9079 37.6399 44.6111 37.6399Z" fill="#FE9661"/>
<path d="M46.8484 24.2122C46.8494 24.5226 46.7479 24.8246 46.5598 25.0714C46.3716 25.3182 46.1073 25.4961 45.8078 25.5774L40.1346 27.1216L30.0638 29.8071L19.993 27.1216L14.3198 25.6109C14.0138 25.5285 13.7444 25.3454 13.5553 25.091C13.3661 24.8367 13.2681 24.5261 13.2772 24.2093C13.2862 23.8925 13.4018 23.5879 13.6052 23.3448C13.8085 23.1018 14.0879 22.9343 14.3981 22.8695L30.0638 19.7363L45.7294 22.8695C46.0407 22.9329 46.3211 23.1005 46.5245 23.3445C46.7279 23.5886 46.8421 23.8946 46.8484 24.2122Z" fill="#CCD3EB"/>
<path d="M6.56651 7.42789C7.18451 7.42789 7.68549 6.92691 7.68549 6.30892C7.68549 5.69092 7.18451 5.18994 6.56651 5.18994C5.94852 5.18994 5.44754 5.69092 5.44754 6.30892C5.44754 6.92691 5.94852 7.42789 6.56651 7.42789Z" fill="#F5F7FF"/>
<path d="M11.0428 7.42789C11.6608 7.42789 12.1617 6.92691 12.1617 6.30892C12.1617 5.69092 11.6608 5.18994 11.0428 5.18994C10.4248 5.18994 9.9238 5.69092 9.9238 6.30892C9.9238 6.92691 10.4248 7.42789 11.0428 7.42789Z" fill="#F5F7FF"/>
<path d="M15.5173 7.42789C16.1353 7.42789 16.6362 6.92691 16.6362 6.30892C16.6362 5.69092 16.1353 5.18994 15.5173 5.18994C14.8993 5.18994 14.3983 5.69092 14.3983 6.30892C14.3983 6.92691 14.8993 7.42789 15.5173 7.42789Z" fill="#F5F7FF"/>
<path d="M2.09027 36.521C2.38704 36.521 2.67166 36.4031 2.88151 36.1932C3.09135 35.9834 3.20925 35.6988 3.20925 35.402V34.283C3.20925 33.9863 3.09135 33.7017 2.88151 33.4918C2.67166 33.282 2.38704 33.1641 2.09027 33.1641C1.7935 33.1641 1.50889 33.282 1.29904 33.4918C1.08919 33.7017 0.971298 33.9863 0.971298 34.283V35.402C0.971298 35.6988 1.08919 35.9834 1.29904 36.1932C1.50889 36.4031 1.7935 36.521 2.09027 36.521Z" fill="#033C59"/>
<path d="M55.801 0.713867H4.32822C3.43791 0.713867 2.58406 1.06754 1.95452 1.69709C1.32497 2.32663 0.971298 3.18048 0.971298 4.07079V29.8072C0.971298 30.104 1.08919 30.3886 1.29904 30.5984C1.50889 30.8083 1.7935 30.9262 2.09027 30.9262C2.38704 30.9262 2.67166 30.8083 2.88151 30.5984C3.09135 30.3886 3.20925 30.104 3.20925 29.8072V11.9036H56.92V55.5436C56.92 55.8404 56.8021 56.125 56.5923 56.3348C56.3824 56.5447 56.0978 56.6626 55.801 56.6626H4.32822C4.03145 56.6626 3.74684 56.5447 3.53699 56.3348C3.32714 56.125 3.20925 55.8404 3.20925 55.5436V39.878C3.20925 39.5812 3.09135 39.2966 2.88151 39.0867C2.67166 38.8769 2.38704 38.759 2.09027 38.759C1.7935 38.759 1.50889 38.8769 1.29904 39.0867C1.08919 39.2966 0.971298 39.5812 0.971298 39.878V55.5436C0.971298 56.4339 1.32497 57.2878 1.95452 57.9173C2.58406 58.5468 3.43791 58.9005 4.32822 58.9005H55.801C56.6913 58.9005 57.5452 58.5468 58.1747 57.9173C58.8043 57.2878 59.158 56.4339 59.158 55.5436V4.07079C59.158 3.18048 58.8043 2.32663 58.1747 1.69709C57.5452 1.06754 56.6913 0.713867 55.801 0.713867ZM56.92 9.66566H3.20925V4.07079C3.20925 3.77402 3.32714 3.4894 3.53699 3.27956C3.74684 3.06971 4.03145 2.95182 4.32822 2.95182H55.801C56.0978 2.95182 56.3824 3.06971 56.5923 3.27956C56.8021 3.4894 56.92 3.77402 56.92 4.07079V9.66566Z" fill="#033C59"/>
<path d="M45.9426 21.773L30.2881 18.6175C30.1408 18.5839 29.9879 18.5839 29.8405 18.6175L14.1749 21.7506C13.6149 21.8623 13.1093 22.1603 12.7402 22.596C12.3711 23.0317 12.1604 23.5794 12.1422 24.1502C12.1241 24.7209 12.2996 25.2809 12.6402 25.7392C12.9808 26.1975 13.4665 26.527 14.0183 26.6741L18.8746 27.9833V35.4021C18.8619 35.6461 18.9293 35.8876 19.0667 36.0896C19.2041 36.2917 19.4039 36.4432 19.6355 36.5211L29.7063 39.878C29.9385 39.9564 30.1901 39.9564 30.4224 39.878L40.4932 36.5211C40.7248 36.4432 40.9245 36.2917 41.0619 36.0896C41.1993 35.8876 41.2668 35.6461 41.2541 35.4021V27.9833L43.492 27.3902V38.759C43.492 39.0558 43.6099 39.3404 43.8198 39.5502C44.0296 39.7601 44.3142 39.878 44.611 39.878C44.9078 39.878 45.1924 39.7601 45.4022 39.5502C45.6121 39.3404 45.73 39.0558 45.73 38.759V26.786L46.0992 26.6853C46.6455 26.534 47.1251 26.2035 47.4611 25.7469C47.7971 25.2903 47.9699 24.7341 47.9518 24.1675C47.9337 23.601 47.7258 23.0569 47.3615 22.6227C46.9971 22.1884 46.4974 21.8892 45.9426 21.773ZM39.0161 34.5964L30.0643 37.64L21.1125 34.6524V28.5763L29.7734 30.9262C29.9648 30.971 30.1639 30.971 30.3553 30.9262L39.0161 28.5763V34.5964ZM45.5174 24.5257L39.8554 26.0363L30.0643 28.6882L20.2845 26.081L14.6225 24.5816C14.545 24.5605 14.4785 24.5104 14.4368 24.4417C14.3952 24.3729 14.3815 24.2908 14.3987 24.2123C14.4 24.1459 14.4241 24.0819 14.4668 24.031C14.5096 23.9801 14.5685 23.9454 14.6337 23.9326L30.0643 20.8554L45.495 23.9438C45.5584 23.9561 45.616 23.9892 45.6585 24.0378C45.701 24.0864 45.7262 24.1478 45.73 24.2123C45.7378 24.2813 45.7206 24.3509 45.6816 24.4083C45.6426 24.4658 45.5844 24.5074 45.5174 24.5257Z" fill="#033C59"/>
</svg>
